<svg width="52" height="52" viewBox="0 0 52 52" fill="none" xmlns="http://www.w3.org/2000/svg">
<g id="account">
<path id="Vector" d="M26 8.66602C28.2986 8.66602 30.503 9.57911 32.1283 11.2044C33.7536 12.8297 34.6667 15.0341 34.6667 17.3327C34.6667 19.6312 33.7536 21.8356 32.1283 23.4609C30.503 25.0863 28.2986 25.9993 26 25.9993C23.7015 25.9993 21.4971 25.0863 19.8718 23.4609C18.2464 21.8356 17.3334 19.6312 17.3334 17.3327C17.3334 15.0341 18.2464 12.8297 19.8718 11.2044C21.4971 9.57911 23.7015 8.66602 26 8.66602ZM26 30.3327C35.5767 30.3327 43.3334 34.211 43.3334 38.9994V43.3327H8.66669V38.9994C8.66669 34.211 16.4234 30.3327 26 30.3327Z" fill="#0097B2"/>
</g>
</svg>
