<svg width="77" height="48" viewBox="0 0 77 48" fill="none" xmlns="http://www.w3.org/2000/svg">
<g id=" " clip-path="url(#clip0_2048_2958)">
<path id="Vector" d="M5.84581 25.8437C6.79726 25.8437 7.56857 25.0698 7.56857 24.1152C7.56857 23.1606 6.79726 22.3867 5.84581 22.3867C4.89435 22.3867 4.12305 23.1606 4.12305 24.1152C4.12305 25.0698 4.89435 25.8437 5.84581 25.8437Z" stroke="#0097B2" stroke-width="0.807323" stroke-miterlimit="10"/>
<path id="Vector_2" d="M2.15709 32.623C3.10854 32.623 3.87985 31.8491 3.87985 30.8945C3.87985 29.9399 3.10854 29.166 2.15709 29.166C1.20563 29.166 0.434326 29.9399 0.434326 30.8945C0.434326 31.8491 1.20563 32.623 2.15709 32.623Z" stroke="#0097B2" stroke-width="0.807323" stroke-miterlimit="10"/>
<path id="Vector_3" d="M21.0154 28.8847H11.8949C11.4543 28.8847 11.4191 28.8493 11.1635 29.172C10.6921 29.76 10.4233 30.2949 9.5509 30.2949C9.20999 30.2957 8.87648 30.1951 8.5926 30.0057C8.30871 29.8163 8.0872 29.5467 7.95614 29.2309C7.82507 28.9151 7.79032 28.5675 7.8563 28.2319C7.92227 27.8963 8.08601 27.5879 8.32677 27.3457C8.56752 27.1035 8.87448 26.9385 9.20878 26.8714C9.54308 26.8044 9.8897 26.8383 10.2048 26.969C10.5198 27.0997 10.7891 27.3213 10.9786 27.6056C11.1681 27.89 11.2693 28.2243 11.2693 28.5664C11.2694 28.6716 11.2605 28.7766 11.2428 28.8802" stroke="#0097B2" stroke-width="0.807323" stroke-miterlimit="10"/>
<path id="Vector_4" d="M6.55824 37.5209C7.25906 37.5209 7.82718 36.9509 7.82718 36.2478C7.82718 35.5446 7.25906 34.9746 6.55824 34.9746C5.85743 34.9746 5.28931 35.5446 5.28931 36.2478C5.28931 36.9509 5.85743 37.5209 6.55824 37.5209Z" stroke="#0097B2" stroke-width="0.807323" stroke-miterlimit="10"/>
<path id="Vector_5" d="M7.68262 24.4102H14.6794C14.9059 24.4444 15.1185 24.5411 15.2935 24.6894C15.4686 24.8377 15.5991 25.0318 15.6707 25.2501C15.8454 25.6515 15.9626 26.0757 16.0188 26.51H21.6277" stroke="#0097B2" stroke-width="0.807323" stroke-miterlimit="10"/>
<path id="Vector_6" d="M3.69507 31.3398H6.77929C6.99078 31.835 7.21991 32.3566 7.44902 32.8561H11.8947C12.2472 32.2947 12.6525 31.9985 13.005 31.4371H20.7597" stroke="#0097B2" stroke-width="0.807323" stroke-miterlimit="10"/>
<path id="Vector_7" d="M7.98535 36.4711H14.8323C14.9445 36.4777 15.0558 36.4477 15.1495 36.3855C15.2432 36.3234 15.3144 36.2324 15.3522 36.1263L16.1145 34.5039H21.0801" stroke="#0097B2" stroke-width="0.807323" stroke-miterlimit="10"/>
<path id="Vector_8" d="M68.0504 0.984894C68.6357 0.982435 69.2151 1.1029 69.7512 1.33854C69.8569 1.38275 69.9627 1.4358 70.064 1.48884L70.2358 1.5861M71.9498 3.54005V3.57098M68.0504 0.980469C66.9228 0.980469 65.8413 1.42992 65.0439 2.22994C64.2466 3.02996 63.7986 4.11502 63.7986 5.24643H63.6532C62.5226 5.24936 61.4395 5.70279 60.6422 6.50696C59.8448 7.31113 59.3985 8.40016 59.4014 9.5345C59.4043 10.6688 59.8562 11.7555 60.6577 12.5556C61.4592 13.3556 62.5447 13.8034 63.6752 13.8005H63.8206H72.3287C73.4332 13.7648 74.4806 13.2995 75.2494 12.5029C76.0182 11.7064 76.448 10.6411 76.448 9.53229C76.448 8.4235 76.0182 7.35818 75.2494 6.56164C74.4806 5.7651 73.4332 5.29978 72.3287 5.26411C72.3289 4.68657 72.212 4.11503 71.985 3.58426" stroke="#0097B2" stroke-width="0.807323" stroke-miterlimit="10"/>
<path id="Vector_9" d="M53.0991 17.9299C53.4801 17.8494 53.8293 17.6589 54.1037 17.3818C54.7626 16.8633 55.3262 16.2335 55.7692 15.5207C55.8133 15.4543 55.8221 15.3527 55.9499 15.3261C56.0626 16.2689 55.91 17.2245 55.5093 18.0846C54.9856 19.2453 54.2018 20.2689 53.2189 21.0756C52.236 21.8823 51.0807 22.4502 49.8431 22.7352C47.9986 23.2031 46.0946 23.3908 44.1946 23.2922C43.5601 23.2657 42.9256 23.2171 42.2823 23.1994C42.6429 23.4039 43.032 23.5529 43.4367 23.6414C43.8509 23.7431 44.2739 23.8227 44.6968 23.8934C45.1214 23.9577 45.5497 23.9931 45.979 23.9995C46.4196 23.9995 46.8338 23.9641 47.2612 23.9641C44.9436 24.8218 42.6833 24.53 40.423 23.6238L41.4143 24.6803C37.634 24.2382 34.5806 25.4981 32.1617 28.3451C34.6329 27.3324 37.311 26.9321 39.9692 27.178C39.0307 27.6952 38.1318 28.1638 37.2506 28.6678C34.2511 30.3315 31.455 32.3403 28.9188 34.6534C27.4727 35.9541 26.2348 37.4705 25.2486 39.1492C24.3137 40.697 23.8839 42.499 24.0193 44.3037C24.0184 44.4759 24.0544 44.6463 24.1251 44.8033C24.3966 43.6987 24.8429 42.6451 25.4469 41.6823C25.5923 41.4391 25.8302 41.2667 25.9183 40.9926C26.3378 40.3318 26.8514 39.736 27.4428 39.2244C27.0043 39.9163 26.6042 40.6321 26.2444 41.3684C26.2469 41.38 26.2469 41.3921 26.2444 41.4038C25.98 42.2127 25.9756 42.2216 26.7466 42.5753C28.7636 43.5279 30.9635 44.0272 33.1927 44.0385C33.2938 44.0332 33.3948 44.0512 33.4879 44.0911C33.5811 44.1309 33.664 44.1915 33.7302 44.2684C34.6477 45.246 35.6423 46.1478 36.7043 46.965C36.9481 47.1539 37.2145 47.3113 37.4974 47.4336C37.8278 47.5706 37.9644 47.4866 37.938 47.1286C37.8662 46.5055 37.7588 45.887 37.6163 45.2763C37.5088 44.6929 37.4939 44.0961 37.5723 43.508C37.6031 43.3533 37.6384 43.2383 37.8102 43.1765C39.3611 42.6327 40.8107 41.8502 42.3528 41.2534C43.1923 40.8582 44.1433 40.7706 45.0405 41.0059C45.7532 41.2789 46.3811 41.7365 46.8602 42.3321C47.8773 43.5587 49.1678 44.5279 50.6274 45.1613C51.7483 45.5978 52.9644 45.7289 54.1522 45.5415C53.6058 45.158 53.0889 44.7339 52.6057 44.2728C51.2398 42.9112 50.2132 41.3728 50.0105 39.41C49.8958 38.1143 50.1688 36.8137 50.7948 35.6745C51.7421 33.8267 53.1917 32.4165 54.7602 31.1345C55.2625 30.7278 55.7868 30.352 56.3684 29.9144C54.9907 30.0469 53.6298 30.3179 52.3061 30.7234C50.2944 31.2621 48.4249 32.2369 46.8294 33.5791C46.4989 33.8709 46.1949 34.1936 45.8556 34.4633C44.0932 35.9309 42.1105 35.7895 40.5684 34.1096L40.2027 33.7162C40.3433 34.4607 40.7335 35.1346 41.3086 35.6259C41.7572 36.0139 42.2946 36.2844 42.8727 36.4132C43.4509 36.542 44.0518 36.5252 44.6219 36.3642C45.2873 36.1913 45.9396 35.9711 46.5738 35.7055C46.9631 35.5593 47.3354 35.3711 47.6841 35.1441C47.6484 35.3346 47.5545 35.5091 47.4154 35.6436C46.7487 36.4982 46.2561 37.476 45.9658 38.5215C45.8933 38.7294 45.7735 38.9176 45.616 39.071C45.4584 39.2245 45.2674 39.339 45.0581 39.4056C44.1501 39.7498 43.2076 39.9943 42.2471 40.135C40.2528 40.4944 38.3109 41.1018 36.4664 41.9431C35.7705 42.3278 34.9567 42.4381 34.184 42.2525C33.6757 42.1078 33.2222 41.8136 32.8821 41.4078C32.5421 41.0019 32.331 40.5032 32.2762 39.9759C32.0958 39.0392 32.1526 38.072 32.4413 37.163C32.7299 36.2539 33.2413 35.4321 33.9285 34.7727C35.1016 33.6471 36.4171 32.681 37.841 31.8993C41.7899 29.4565 46.1039 27.6654 50.6186 26.5945C51.8707 26.2997 53.141 26.0886 54.421 25.9623C54.4675 25.9672 54.5146 25.961 54.5582 25.9441C54.6019 25.9272 54.6409 25.9001 54.6721 25.8651L52.2179 23.5928C52.8167 23.204 53.3933 22.7819 53.9451 22.3285C55.756 20.7768 57.1835 18.9644 57.7828 16.5816C58.1622 15.0298 58.095 13.4018 57.5889 11.8868C57.5653 11.8224 57.5358 11.7602 57.5008 11.7012C56.4959 12.4322 55.7084 13.424 55.2229 14.5702C55.1788 14.6719 55.192 14.8531 55.051 14.862C54.91 14.8708 54.866 14.7117 54.7999 14.6144C54.621 14.3613 54.5363 14.0532 54.5604 13.7438C54.5846 13.4345 54.7161 13.1434 54.9321 12.9213C55.088 12.7423 55.2745 12.5926 55.4828 12.4792L56.1305 12.1521C55.8492 11.9553 55.5236 11.8317 55.1829 11.7923C54.8422 11.753 54.4971 11.7991 54.1786 11.9266C54.056 11.9862 53.9488 12.0735 53.8655 12.1816C53.7821 12.2898 53.7249 12.4159 53.6984 12.5499C53.4844 13.311 53.4497 14.1116 53.597 14.8885C53.7298 15.6214 53.7103 16.3739 53.5398 17.0988C53.4434 17.3933 53.2941 17.6675 53.0991 17.9078V17.9299Z" fill="#0097B2"/>
<path id="Vector_10" d="M18.4506 21.0146C19.2326 20.0164 20.1735 19.1546 21.2353 18.4639C23.989 16.6514 27.0644 15.7363 30.272 15.1882C31.1131 15.1144 31.9355 14.8976 32.7042 14.5472C34.2807 13.7228 35.951 13.0935 37.6786 12.6728C40.4455 11.944 43.3075 11.6458 46.1646 11.7886C47.5617 11.8434 48.9509 12.0254 50.3151 12.3324C51.2756 12.5623 52.2317 12.8408 53.2363 12.3324C52.7224 13.9919 51.8258 15.5064 50.6191 16.7531C50.1287 17.2866 49.5269 17.7047 48.8567 17.9776L48.8258 17.9422C49.2547 17.599 49.6636 17.2315 50.0507 16.8415C50.6897 16.2228 51.1469 15.4398 51.3725 14.5781C51.521 14.2641 51.5598 13.909 51.4827 13.5702C51.3197 13.9194 51.1875 14.1935 51.0421 14.4543C50.7492 14.9958 50.3645 15.482 49.9053 15.891C49.6732 16.0998 49.3694 16.2101 49.0579 16.1985C48.7464 16.187 48.4515 16.0546 48.2354 15.8291C47.7844 15.3872 47.489 14.8099 47.3939 14.1847C47.3586 14.0344 47.4424 13.7956 47.2837 13.7426C47.1251 13.6895 46.9753 13.9017 46.8431 14.0078C46.8047 14.0382 46.7693 14.0723 46.7374 14.1095C45.8639 14.9632 45.1819 15.9941 44.737 17.1333C44.6621 17.3057 44.5872 17.4825 44.5167 17.6549C44.3273 16.3287 44.7062 15.113 45.1909 13.8531C42.2697 15.3075 40.4368 17.4825 40.0446 20.7405C39.8774 19.5571 39.8552 18.3575 39.9785 17.1686C40.0006 16.9122 39.9433 16.8592 39.7142 16.9078L39.0665 17.0404C35.4403 17.814 32.0168 19.1005 29.0075 21.302C26.3938 23.1491 24.3166 25.6604 22.9889 28.5784C22.7097 29.1502 22.5025 29.7545 22.372 30.3776C22.9956 29.5952 23.6968 28.8783 24.4649 28.238L25.584 27.3539C23.4149 31.0183 22.218 35.1794 22.1077 39.44C22.0504 39.3958 22.0239 39.387 22.0151 39.3693C20.6612 36.8106 20.0147 33.9349 20.1426 31.0407C20.2736 29.062 20.7106 27.1157 21.4379 25.2717C21.7684 24.3876 22.2046 23.5388 22.4557 22.6193C22.6188 22.0093 22.513 21.7706 21.9402 21.4965C21.2446 21.2044 20.4876 21.0905 19.7372 21.1649C19.2746 21.1649 18.8075 21.2357 18.2788 21.2799C18.3713 21.134 18.4066 21.0721 18.4506 21.0146Z" fill="#0097B2"/>
<path id="Vector_11" d="M67.9839 10.7688C69.4926 10.7688 70.7157 9.54165 70.7157 8.02793C70.7157 6.51422 69.4926 5.28711 67.9839 5.28711C66.4752 5.28711 65.2522 6.51422 65.2522 8.02793C65.2522 9.54165 66.4752 10.7688 67.9839 10.7688Z" fill="#0097B2"/>
<path id="Vector_12" d="M71.3281 2.3589C71.1902 2.21112 71.043 2.07233 70.8875 1.94336" stroke="#0097B2" stroke-width="1.61465" stroke-miterlimit="10"/>
<path id="Vector_13" d="M71.4202 2.46989L71.3276 2.35938" stroke="#0097B2" stroke-width="1.61465" stroke-miterlimit="10"/>
<path id="Vector_14" d="M71.6632 2.79978C71.5885 2.68634 71.5076 2.57714 71.4209 2.47266" stroke="#0097B2" stroke-width="1.61465" stroke-miterlimit="10"/>
</g>
<defs>
<clipPath id="clip0_2048_2958">
<rect width="77.0087" height="46.9565" fill="white" transform="translate(-0.00439453 0.542969)"/>
</clipPath>
</defs>
</svg>
