<svg width="114" height="69" viewBox="0 0 114 69" fill="none" xmlns="http://www.w3.org/2000/svg">
<g id=" " clip-path="url(#clip0_2035_6641)">
<path id="Vector" d="M8.66186 37.1755C10.0704 37.1755 11.2122 36.0384 11.2122 34.6356C11.2122 33.2329 10.0704 32.0957 8.66186 32.0957C7.25338 32.0957 6.11157 33.2329 6.11157 34.6356C6.11157 36.0384 7.25338 37.1755 8.66186 37.1755Z" stroke="white" stroke-width="2" stroke-miterlimit="10"/>
<path id="Vector_2" d="M3.20264 47.1404C4.61112 47.1404 5.75293 46.0032 5.75293 44.6005C5.75293 43.1977 4.61112 42.0605 3.20264 42.0605C1.79415 42.0605 0.652344 43.1977 0.652344 44.6005C0.652344 46.0032 1.79415 47.1404 3.20264 47.1404Z" stroke="white" stroke-width="2" stroke-miterlimit="10"/>
<path id="Vector_3" d="M31.1187 41.6463H17.6171C16.9649 41.6463 16.9127 41.5943 16.5344 42.0685C15.8365 42.9325 15.4386 43.7185 14.1472 43.7185C13.6425 43.7198 13.1488 43.5719 12.7285 43.2936C12.3083 43.0153 11.9804 42.6191 11.7863 42.1551C11.5923 41.6911 11.5409 41.1802 11.6385 40.6871C11.7362 40.1939 11.9786 39.7408 12.335 39.3849C12.6914 39.029 13.1458 38.7865 13.6407 38.688C14.1356 38.5894 14.6487 38.6393 15.1151 38.8314C15.5815 39.0234 15.9802 39.349 16.2607 39.7668C16.5412 40.1846 16.6909 40.6759 16.6909 41.1786C16.6911 41.3331 16.678 41.4874 16.6518 41.6398" stroke="white" stroke-width="2" stroke-miterlimit="10"/>
<path id="Vector_4" d="M9.71856 54.3393C10.756 54.3393 11.597 53.5017 11.597 52.4685C11.597 51.4353 10.756 50.5977 9.71856 50.5977C8.68111 50.5977 7.84009 51.4353 7.84009 52.4685C7.84009 53.5017 8.68111 54.3393 9.71856 54.3393Z" stroke="white" stroke-width="2" stroke-miterlimit="10"/>
<path id="Vector_5" d="M11.3818 35.0723H21.7395C22.0748 35.1226 22.3896 35.2647 22.6487 35.4826C22.9078 35.7005 23.1011 35.9857 23.2071 36.3065C23.4656 36.8963 23.6391 37.5196 23.7224 38.1578H32.0255" stroke="white" stroke-width="2" stroke-miterlimit="10"/>
<path id="Vector_6" d="M5.479 45.2578H10.0447C10.3578 45.9854 10.697 46.7519 11.0362 47.4859H17.6174C18.1392 46.6609 18.7392 46.2257 19.261 45.4007H30.7406" stroke="white" stroke-width="2" stroke-miterlimit="10"/>
<path id="Vector_7" d="M11.8318 52.7931H21.9677C22.1338 52.8028 22.2985 52.7586 22.4373 52.6673C22.576 52.5759 22.6813 52.4423 22.7374 52.2863L23.8658 49.9023H31.2166" stroke="white" stroke-width="2" stroke-miterlimit="10"/>
<path id="Vector_8" d="M100.746 0.64908C101.613 0.645467 102.47 0.822479 103.264 1.16875C103.421 1.23371 103.577 1.31166 103.727 1.38961L103.981 1.53252M106.519 4.40374V4.4492M100.746 0.642578C99.077 0.642578 97.476 1.30302 96.2956 2.4786C95.1152 3.65419 94.4521 5.24863 94.4521 6.91117H94.2369C92.5632 6.91547 90.9598 7.58177 89.7794 8.76345C88.599 9.94513 87.9383 11.5454 87.9426 13.2122C87.947 14.8791 88.616 16.4759 89.8025 17.6515C90.989 18.8271 92.5958 19.4851 94.2695 19.4808H94.4847H107.08C108.715 19.4284 110.265 18.7447 111.403 17.5742C112.541 16.4037 113.178 14.8383 113.178 13.209C113.178 11.5797 112.541 10.0143 111.403 8.8438C110.265 7.67332 108.715 6.98957 107.08 6.93716C107.08 6.08849 106.907 5.24864 106.571 4.4687" stroke="white" stroke-width="2" stroke-miterlimit="10"/>
<path id="Vector_9" d="M78.6156 25.5493C79.1796 25.431 79.6965 25.151 80.1027 24.7438C81.0781 23.982 81.9124 23.0565 82.5682 22.009C82.6334 21.9116 82.6465 21.7621 82.8356 21.7232C83.0026 23.1085 82.7766 24.5127 82.1834 25.7766C81.4082 27.4822 80.2478 28.9863 78.7929 30.1717C77.3379 31.357 75.6276 32.1916 73.7955 32.6104C71.0649 33.2979 68.2463 33.5738 65.4337 33.4289C64.4944 33.3899 63.5552 33.3184 62.6029 33.2925C63.1367 33.593 63.7127 33.8119 64.3118 33.9421C64.9249 34.0915 65.551 34.2084 66.1772 34.3123C66.8056 34.4067 67.4398 34.4588 68.0752 34.4682C68.7275 34.4682 69.3406 34.4162 69.9733 34.4162C66.5425 35.6765 63.1964 35.2477 59.8504 33.9161L61.318 35.4686C55.7217 34.819 51.2016 36.6703 47.6207 40.8537C51.2791 39.3657 55.2436 38.7775 59.1786 39.1388C57.7893 39.8988 56.4587 40.5874 55.1542 41.328C50.7138 43.7728 46.5746 46.7245 42.8202 50.1235C40.6794 52.0348 38.8468 54.2631 37.387 56.7299C36.0029 59.0042 35.3667 61.6522 35.5672 64.3041C35.5658 64.5572 35.6192 64.8075 35.7237 65.0382C36.1257 63.4151 36.7863 61.8668 37.6805 60.452C37.8957 60.0948 38.2479 59.8414 38.3784 59.4387C38.9994 58.4676 39.7597 57.5922 40.6351 56.8403C39.986 57.8571 39.3937 58.9089 38.861 59.9908C38.8647 60.0079 38.8647 60.0257 38.861 60.0428C38.4697 61.2315 38.4632 61.2446 39.6046 61.7642C42.5904 63.1641 45.847 63.8979 49.147 63.9144C49.2967 63.9067 49.4462 63.9331 49.5841 63.9916C49.722 64.0502 49.8447 64.1392 49.9427 64.2522C51.301 65.6887 52.7733 67.0139 54.3454 68.2147C54.7063 68.4923 55.1007 68.7236 55.5195 68.9033C56.0086 69.1046 56.2108 68.9812 56.1717 68.4551C56.0654 67.5395 55.9064 66.6307 55.6956 65.7332C55.5363 64.876 55.5143 63.999 55.6304 63.1349C55.676 62.9075 55.7282 62.7386 55.9826 62.6477C58.2785 61.8487 60.4244 60.6989 62.7072 59.8219C63.95 59.2411 65.3578 59.1123 66.686 59.4581C67.741 59.8593 68.6704 60.5317 69.3797 61.4069C70.8854 63.2093 72.7958 64.6335 74.9565 65.5643C76.6159 66.2057 78.4161 66.3984 80.1745 66.123C79.3656 65.5594 78.6003 64.9362 77.8851 64.2587C75.8631 62.2579 74.3434 59.9973 74.0433 57.1131C73.8734 55.2091 74.2777 53.2979 75.2043 51.624C76.6067 48.9087 78.7525 46.8365 81.0746 44.9527C81.8181 44.3551 82.5943 43.8029 83.4553 43.1598C81.4158 43.3545 79.4011 43.7528 77.4415 44.3486C74.4635 45.1402 71.696 46.5727 69.3341 48.5449C68.8449 48.9737 68.3949 49.4479 67.8926 49.8441C65.2836 52.0008 62.3485 51.7929 60.0656 49.3245L59.5243 48.7463C59.7324 49.8404 60.3101 50.8307 61.1614 51.5526C61.8255 52.1227 62.621 52.5201 63.4769 52.7094C64.3327 52.8987 65.2224 52.874 66.0663 52.6374C67.0513 52.3833 68.0169 52.0599 68.9558 51.6695C69.5321 51.4547 70.0832 51.1781 70.5994 50.8445C70.5466 51.1244 70.4076 51.381 70.2016 51.5785C69.2146 52.8343 68.4855 54.2712 68.0557 55.8074C67.9484 56.113 67.7711 56.3895 67.5379 56.615C67.3046 56.8405 67.0219 57.0088 66.7121 57.1066C65.3678 57.6123 63.9726 57.9717 62.5507 58.1785C59.5985 58.7066 56.7238 59.599 53.9932 60.8353C52.9631 61.4006 51.7583 61.5627 50.6146 61.29C49.862 61.0774 49.1907 60.645 48.6873 60.0487C48.1839 59.4523 47.8714 58.7195 47.7903 57.9446C47.5233 56.5681 47.6073 55.1469 48.0346 53.8112C48.4619 52.4754 49.2189 51.2678 50.2362 50.2989C51.9729 48.6448 53.9202 47.2252 56.0282 46.0765C61.8739 42.4869 68.2602 39.855 74.9434 38.2813C76.7971 37.8483 78.6775 37.5379 80.5723 37.3524C80.6412 37.3597 80.7109 37.3505 80.7755 37.3256C80.8402 37.3008 80.898 37.261 80.9441 37.2095L77.3111 33.8706C78.1975 33.2993 79.0511 32.6791 79.8679 32.0128C82.5487 29.7327 84.6619 27.0693 85.549 23.568C86.1107 21.2877 86.0111 18.8955 85.262 16.6693C85.2271 16.5746 85.1834 16.4832 85.1315 16.3965C83.6439 17.4707 82.4782 18.9281 81.7594 20.6124C81.6942 20.7618 81.7138 21.0281 81.505 21.0411C81.2963 21.0541 81.2311 20.8202 81.1333 20.6773C80.8685 20.3053 80.743 19.8526 80.7788 19.398C80.8145 18.9435 81.0092 18.5158 81.3289 18.1894C81.5598 17.9264 81.8359 17.7064 82.1443 17.5398L83.1031 17.0591C82.6866 16.7699 82.2046 16.5882 81.7003 16.5304C81.196 16.4726 80.6851 16.5404 80.2136 16.7278C80.0321 16.8153 79.8734 16.9436 79.75 17.1025C79.6267 17.2614 79.542 17.4467 79.5026 17.6437C79.1859 18.7621 79.1345 19.9385 79.3526 21.0801C79.5491 22.157 79.5203 23.2627 79.2678 24.328C79.1253 24.7607 78.9042 25.1636 78.6156 25.5168V25.5493Z" fill="white"/>
<path id="Vector_10" d="M27.3227 30.0827C28.4804 28.616 29.8732 27.3495 31.4449 26.3345C35.5215 23.6712 40.0742 22.3265 44.8226 21.5211C46.0676 21.4126 47.2851 21.0941 48.423 20.5791C50.7567 19.3679 53.2294 18.443 55.7869 17.8249C59.8828 16.7539 64.1197 16.3158 68.3492 16.5257C70.4173 16.6061 72.4738 16.8735 74.4933 17.3247C75.9152 17.6624 77.3306 18.0717 78.8178 17.3247C78.0571 19.7632 76.7297 21.9888 74.9434 23.8206C74.2175 24.6045 73.3266 25.219 72.3344 25.62L72.2887 25.568C72.9236 25.0636 73.529 24.5236 74.102 23.9505C75.0479 23.0413 75.7247 21.8908 76.0587 20.6246C76.2786 20.1632 76.336 19.6414 76.2218 19.1435C75.9805 19.6567 75.7848 20.0595 75.5696 20.4427C75.136 21.2384 74.5665 21.9528 73.8868 22.5539C73.5432 22.8607 73.0934 23.0227 72.6323 23.0057C72.1712 22.9888 71.7346 22.7942 71.4147 22.463C70.7471 21.8135 70.3098 20.9653 70.1689 20.0465C70.1168 19.8256 70.2407 19.4748 70.0059 19.3969C69.7711 19.3189 69.5493 19.6307 69.3536 19.7866C69.2967 19.8313 69.2443 19.8813 69.1971 19.936C67.904 21.1905 66.8945 22.7053 66.2359 24.3793C66.125 24.6326 66.0141 24.8924 65.9098 25.1458C65.6293 23.197 66.1902 21.4106 66.9077 19.5593C62.5833 21.6964 59.8699 24.8924 59.2894 29.68C59.0418 27.9409 59.009 26.1782 59.1916 24.4312C59.2242 24.0545 59.1394 23.9765 58.8002 24.048L57.8414 24.2428C52.4734 25.3796 47.4055 27.27 42.9506 30.5049C39.0814 33.2193 36.0064 36.9095 34.0409 41.1973C33.6276 42.0374 33.3208 42.9255 33.1278 43.8411C34.0509 42.6913 35.089 41.6379 36.2259 40.6971L37.8826 39.3979C34.6715 44.7826 32.8997 50.8971 32.7364 57.1578C32.6516 57.0929 32.6125 57.0799 32.5994 57.0539C30.5952 53.294 29.638 49.0683 29.8274 44.8155C30.0214 41.9079 30.6683 39.0479 31.745 36.3383C32.2342 35.0391 32.8799 33.7919 33.2517 32.4407C33.493 31.5443 33.3365 31.1935 32.4885 30.7908C31.4588 30.3616 30.3381 30.1941 29.2273 30.3036C28.5424 30.3036 27.8511 30.4075 27.0684 30.4725C27.2053 30.2581 27.2575 30.1672 27.3227 30.0827Z" fill="white"/>
<path id="Vector_11" d="M100.648 15.0257C102.882 15.0257 104.692 13.2225 104.692 10.9982C104.692 8.77387 102.882 6.9707 100.648 6.9707C98.415 6.9707 96.6045 8.77387 96.6045 10.9982C96.6045 13.2225 98.415 15.0257 100.648 15.0257Z" fill="white"/>
<path id="Vector_12" d="M105.599 2.66921C105.395 2.45206 105.177 2.2481 104.947 2.05859" stroke="white" stroke-width="4" stroke-miterlimit="10"/>
<path id="Vector_13" d="M105.736 2.83232L105.599 2.66992" stroke="white" stroke-width="4" stroke-miterlimit="10"/>
<path id="Vector_14" d="M106.095 3.31273C105.984 3.14603 105.864 2.98556 105.736 2.83203" stroke="white" stroke-width="4" stroke-miterlimit="10"/>
</g>
<defs>
<clipPath id="clip0_2035_6641">
<rect width="114" height="69" fill="white"/>
</clipPath>
</defs>
</svg>
