<svg width="20" height="18" viewBox="0 0 20 18" fill="none" xmlns="http://www.w3.org/2000/svg">
<path id="Vector" d="M18 2H15L13 0H7L5 2H2C0.9 2 0 2.9 0 4V16C0 17.11 0.9 18 2 18H18C19.11 18 20 17.11 20 16V4C20 2.9 19.11 2 18 2ZM3 9H5.1C5.65 6.29 8.29 4.55 11 5.1C11.76 5.25 12.43 5.59 13 6L11.56 7.45C11.11 7.17 10.58 7 10 7C8.74 7 7.6 7.8 7.18 9H9L6 12L3 9ZM14.91 11C14.36 13.71 11.72 15.45 9 14.9C8.25 14.74 7.58 14.41 7 14L8.44 12.55C8.9 12.83 9.43 13 10 13C11.27 13 12.41 12.2 12.83 11H11L14 8L17 11H14.91Z" fill="#2E2C31"/>
</svg>
