<svg width="18" height="16" viewBox="0 0 18 16" fill="none" xmlns="http://www.w3.org/2000/svg">
<path id="Vector" d="M15.9158 1.77778H13.2632L11.4947 0H6.18947L4.42105 1.77778H1.76842C0.795789 1.77778 0 2.57778 0 3.55556V14.2222C0 15.2089 0.795789 16 1.76842 16H15.9158C16.8973 16 17.6842 15.2089 17.6842 14.2222V3.55556C17.6842 2.57778 16.8973 1.77778 15.9158 1.77778ZM2.65263 8H4.50947C4.99579 5.59111 7.3301 4.04445 9.72632 4.53333C10.3983 4.66667 10.9907 4.96889 11.4947 5.33333L10.2215 6.62222C9.82358 6.37333 9.35495 6.22222 8.8421 6.22222C7.728 6.22222 6.72 6.93333 6.34863 8H7.95789L5.30526 10.6667L2.65263 8ZM13.1836 9.77778C12.6973 12.1867 10.3629 13.7333 7.95789 13.2444C7.29474 13.1022 6.70232 12.8089 6.18947 12.4444L7.46274 11.1556C7.86947 11.4044 8.3381 11.5556 8.8421 11.5556C9.96505 11.5556 10.9731 10.8444 11.3444 9.77778H9.72632L12.3789 7.11111L15.0316 9.77778H13.1836Z" fill="white"/>
</svg>
