<svg width="19" height="19" viewBox="0 0 19 19" fill="none" xmlns="http://www.w3.org/2000/svg">
<path d="M2.9375 5.24967H4.39583M4.39583 5.24967H16.0625M4.39583 5.24967V15.458C4.39583 15.8448 4.54948 16.2157 4.82297 16.4892C5.09646 16.7627 5.46739 16.9163 5.85417 16.9163H13.1458C13.5326 16.9163 13.9035 16.7627 14.177 16.4892C14.4505 16.2157 14.6042 15.8448 14.6042 15.458V5.24967H4.39583ZM6.58333 5.24967V3.79134C6.58333 3.40457 6.73698 3.03363 7.01047 2.76014C7.28396 2.48665 7.65489 2.33301 8.04167 2.33301H10.9583C11.3451 2.33301 11.716 2.48665 11.9895 2.76014C12.263 3.03363 12.4167 3.40457 12.4167 3.79134V5.24967M8.04167 8.89551V13.2705M10.9583 8.89551V13.2705" stroke="#3F3F3F" stroke-width="1.45833" stroke-linecap="round" stroke-linejoin="round"/>
</svg>
