<svg width="20" height="20" viewBox="0 0 20 20" fill="none" xmlns="http://www.w3.org/2000/svg">
<g id="Google">
<path id="Vector" d="M19.575 10.2257C19.575 9.56732 19.5167 8.94232 19.4167 8.33398H10V12.0923H15.3917C15.15 13.3257 14.4417 14.3673 13.3917 15.0757V17.5757H16.6083C18.4917 15.834 19.575 13.2673 19.575 10.2257Z" fill="#4285F4"/>
<path id="Vector_2" d="M10 19.9999C12.7 19.9999 14.9584 19.0999 16.6084 17.5749L13.3917 15.0749C12.4917 15.6749 11.35 16.0415 10 16.0415C7.39171 16.0415 5.18338 14.2832 4.39171 11.9082H1.07504V14.4832C2.71671 17.7499 6.09171 19.9999 10 19.9999Z" fill="#13B97D"/>
<path id="Vector_3" d="M4.39167 11.9092C4.18333 11.3092 4.075 10.6676 4.075 10.0009C4.075 9.33424 4.19167 8.69258 4.39167 8.09258V5.51758H1.075C0.391666 6.86758 0 8.38424 0 10.0009C0 11.6176 0.391666 13.1342 1.075 14.4842L4.39167 11.9092Z" fill="#FBBC05"/>
<path id="Vector_4" d="M10 3.95833C11.475 3.95833 12.7917 4.46667 13.8334 5.45834L16.6834 2.60833C14.9584 0.991668 12.7 0 10 0C6.09171 0 2.71671 2.25 1.07504 5.51667L4.39171 8.09167C5.18338 5.71667 7.39171 3.95833 10 3.95833Z" fill="#EA4335"/>
</g>
</svg>
