<svg width="15" height="17" viewBox="0 0 15 17" fill="none" xmlns="http://www.w3.org/2000/svg">
<g id="Location">
<path id="Location_2" d="M7.21973 0C11.1829 0.000158289 14.4502 3.16052 14.4502 7.07031C14.4501 9.04047 13.733 10.8696 12.5537 12.4199C11.2527 14.1299 9.64967 15.6205 7.84473 16.79C7.4316 17.0603 7.0579 17.0807 6.60449 16.79C4.78916 15.6205 3.18544 14.1301 1.89551 12.4199C0.715379 10.8697 5.31097e-05 9.04041 0 7.07031C0 3.16043 3.2676 0 7.21973 0ZM7.21973 4.91016C5.90935 4.91019 4.84101 5.9906 4.84082 7.29004C4.84082 8.59983 5.90923 9.62986 7.21973 9.62988C8.5311 9.62988 9.61035 8.59985 9.61035 7.29004C9.61016 5.99058 8.53099 4.91016 7.21973 4.91016Z" fill="white"/>
</g>
</svg>
