<svg width="19" height="19" viewBox="0 0 19 19" fill="none" xmlns="http://www.w3.org/2000/svg">
<path id="Vector" d="M9.5 0.5C14.5067 0.5 18.4999 4.10947 18.5 8.44434C18.5 12.7793 14.5067 16.3887 9.5 16.3887C8.37583 16.3887 7.29668 16.208 6.2998 15.8857L6.01758 15.7939L5.80176 15.999C4.48903 17.2478 3.03243 17.8744 1.89941 18.1885C1.64478 18.2591 1.40661 18.3112 1.19141 18.3535C2.74672 16.3512 3.06179 14.9476 3.11133 14.2871L3.12891 14.0488L2.9541 13.8848C1.42868 12.459 0.5 10.5391 0.5 8.44434C0.500067 4.10947 4.49334 0.5 9.5 0.5Z" stroke="white"/>
</svg>
