<svg width="19" height="19" viewBox="0 0 19 19" fill="none" xmlns="http://www.w3.org/2000/svg">
<path id="Vector" d="M9.5 0.75C14.3975 0.75 18.2499 4.27478 18.25 8.44434C18.25 12.6139 14.3976 16.1387 9.5 16.1387C8.40274 16.1387 7.34977 15.9619 6.37695 15.6475L5.95312 15.5107L5.62988 15.8174C4.35437 17.0308 2.93761 17.641 1.83301 17.9473C1.82115 17.9506 1.80866 17.9528 1.79688 17.9561C3.02908 16.2091 3.31157 14.9561 3.36035 14.3057L3.3877 13.9473L3.125 13.7021C1.64437 12.3183 0.75 10.4623 0.75 8.44434C0.750067 4.27478 4.60249 0.75 9.5 0.75Z" stroke="#2E2C31" stroke-width="1.5"/>
</svg>
