<svg width="12" height="11" viewBox="0 0 12 11" fill="none" xmlns="http://www.w3.org/2000/svg">
<path id=" Vector" fill-rule="evenodd" clip-rule="evenodd" d="M5.85246 0.471369C5.94182 0.62992 5.9297 0.82617 5.82152 0.972526C5.36136 1.59507 5.13993 2.36209 5.1975 3.13409C5.25507 3.90609 5.58782 4.63179 6.13522 5.17919C6.68262 5.72659 7.40832 6.05934 8.18032 6.11691C8.95232 6.17448 9.71934 5.95305 10.3419 5.49289C10.6617 5.2643 11.1031 5.51447 11.0761 5.90669C10.985 6.89226 10.6152 7.83151 10.0097 8.61454C9.40433 9.39757 8.58844 9.99198 7.65754 10.3282C6.72663 10.6645 5.71921 10.7287 4.75316 10.5133C3.78712 10.2978 2.90239 9.81177 2.20252 9.11189C1.50264 8.41202 1.01656 7.52729 0.801157 6.56124C0.585752 5.5952 0.649928 4.58778 0.986178 3.65687C1.32243 2.72597 1.91684 1.91007 2.69987 1.30467C3.4829 0.699259 4.42215 0.329375 5.40772 0.238295C5.58895 0.221547 5.7631 0.312818 5.85246 0.471369ZM9.96503 6.7517C9.38135 6.98534 8.74781 7.08526 8.11165 7.03782C7.11907 6.9638 6.18604 6.53598 5.48223 5.83218C4.77843 5.12837 4.35061 4.19534 4.27659 3.20276C4.22915 2.5666 4.32907 1.93306 4.56271 1.34937C4.09605 1.50095 3.65661 1.73224 3.26472 2.03524C2.62046 2.53336 2.13138 3.20466 1.85472 3.9706C1.57806 4.73653 1.52526 5.56542 1.70249 6.36027C1.87972 7.15512 2.27966 7.88306 2.85551 8.4589C3.43135 9.03475 4.15929 9.43469 4.95414 9.61192C5.74899 9.78915 6.57788 9.73635 7.34381 9.45969C8.10975 9.18303 8.78105 8.69395 9.27917 8.04969C9.58216 7.6578 9.81346 7.21836 9.96503 6.7517Z" fill="#2E2C31"/>
</svg>
