<svg width="13" height="14" viewBox="0 0 13 14" fill="none" xmlns="http://www.w3.org/2000/svg">
<g id=" Vector">
<path fill-rule="evenodd" clip-rule="evenodd" d="M6.50588 4.91971C5.3037 4.91971 4.32914 5.89427 4.32914 7.09645C4.32914 8.29863 5.3037 9.27319 6.50588 9.27319C7.70806 9.27319 8.68262 8.29863 8.68262 7.09645C8.68262 5.89427 7.70806 4.91971 6.50588 4.91971ZM3.40567 7.09645C3.40567 5.38426 4.79368 3.99625 6.50588 3.99625C8.21807 3.99625 9.60608 5.38426 9.60608 7.09645C9.60608 8.80865 8.21807 10.1967 6.50588 10.1967C4.79368 10.1967 3.40567 8.80865 3.40567 7.09645Z" fill="white"/>
<path fill-rule="evenodd" clip-rule="evenodd" d="M6.50588 0.830078C6.76088 0.830078 6.96761 1.0368 6.96761 1.29181V2.3472C6.96761 2.60221 6.76088 2.80893 6.50588 2.80893C6.25087 2.80893 6.04414 2.60221 6.04414 2.3472V1.29181C6.04414 1.0368 6.25087 0.830078 6.50588 0.830078Z" fill="white"/>
<path fill-rule="evenodd" clip-rule="evenodd" d="M6.50588 11.384C6.76088 11.384 6.96761 11.5907 6.96761 11.8457V12.9011C6.96761 13.1561 6.76088 13.3628 6.50588 13.3628C6.25087 13.3628 6.04414 13.1561 6.04414 12.9011V11.8457C6.04414 11.5907 6.25087 11.384 6.50588 11.384Z" fill="white"/>
<path fill-rule="evenodd" clip-rule="evenodd" d="M2.07392 2.66449C2.25424 2.48418 2.54659 2.48418 2.72691 2.66449L3.47623 3.41382C3.65655 3.59414 3.65655 3.88649 3.47623 4.06681C3.29591 4.24713 3.00356 4.24713 2.82324 4.06681L2.07392 3.31748C1.8936 3.13716 1.8936 2.84481 2.07392 2.66449Z" fill="white"/>
<path fill-rule="evenodd" clip-rule="evenodd" d="M9.53552 10.1261C9.71584 9.94578 10.0082 9.94578 10.1885 10.1261L10.9378 10.8754C11.1182 11.0557 11.1182 11.3481 10.9378 11.5284C10.7575 11.7087 10.4652 11.7087 10.2848 11.5284L9.53552 10.7791C9.3552 10.5988 9.3552 10.3064 9.53552 10.1261Z" fill="white"/>
<path fill-rule="evenodd" clip-rule="evenodd" d="M0.239502 7.09645C0.239502 6.84144 0.446227 6.63472 0.701235 6.63472H1.75662C2.01163 6.63472 2.21836 6.84144 2.21836 7.09645C2.21836 7.35146 2.01163 7.55818 1.75662 7.55818H0.701235C0.446227 7.55818 0.239502 7.35146 0.239502 7.09645Z" fill="white"/>
<path fill-rule="evenodd" clip-rule="evenodd" d="M10.7934 7.09645C10.7934 6.84144 11.0001 6.63472 11.2551 6.63472H12.3105C12.5655 6.63472 12.7723 6.84144 12.7723 7.09645C12.7723 7.35146 12.5655 7.55818 12.3105 7.55818H11.2551C11.0001 7.55818 10.7934 7.35146 10.7934 7.09645Z" fill="white"/>
<path fill-rule="evenodd" clip-rule="evenodd" d="M3.47623 10.1261C3.65655 10.3064 3.65655 10.5988 3.47623 10.7791L2.72691 11.5284C2.54659 11.7087 2.25424 11.7087 2.07392 11.5284C1.8936 11.3481 1.8936 11.0557 2.07392 10.8754L2.82324 10.1261C3.00356 9.94578 3.29591 9.94578 3.47623 10.1261Z" fill="white"/>
<path fill-rule="evenodd" clip-rule="evenodd" d="M10.9378 2.66449C11.1182 2.84481 11.1182 3.13716 10.9378 3.31748L10.1885 4.06681C10.0082 4.24713 9.71584 4.24713 9.53552 4.06681C9.3552 3.88649 9.3552 3.59414 9.53552 3.41382L10.2848 2.66449C10.4652 2.48418 10.7575 2.48418 10.9378 2.66449Z" fill="white"/>
</g>
</svg>
